<?xml version="1.0" standalone="no"?>
<!DOCTYPE svg PUBLIC "-//W3C//DTD SVG 20010904//EN"
 "http://www.w3.org/TR/2001/REC-SVG-20010904/DTD/svg10.dtd">
<svg version="1.0" xmlns="http://www.w3.org/2000/svg"
 width="128.000000pt" height="128.000000pt" viewBox="0 0 128.000000 128.000000"
 preserveAspectRatio="xMidYMid meet">
<metadata>
Created by potrace 1.11, written by Peter Selinger 2001-2013
</metadata>
<g transform="translate(0.000000,128.000000) scale(0.100000,-0.100000)"
fill="#000000" stroke="none">
<path d="M486 1214 c-191 -47 -337 -173 -381 -329 -10 -33 -21 -64 -25 -70 -5
-5 -18 -39 -30 -74 -17 -50 -21 -84 -19 -153 2 -48 7 -88 12 -88 4 0 6 -4 3
-9 -8 -12 25 -123 41 -139 7 -7 13 -20 13 -27 0 -8 11 -26 25 -40 14 -14 22
-25 18 -25 -4 0 4 -8 20 -18 15 -10 24 -22 20 -25 -3 -4 1 -7 10 -7 9 0 23
-10 31 -22 9 -12 16 -18 16 -13 0 6 7 1 16 -10 8 -11 16 -18 17 -17 1 2 14 -2
29 -9 15 -6 25 -16 21 -22 -3 -6 -2 -7 4 -4 11 7 116 -26 109 -34 -2 -2 5 -5
17 -5 12 -1 51 -5 87 -9 36 -5 79 -8 95 -9 17 -1 33 -5 37 -11 5 -6 8 -6 8 1
0 6 28 14 63 19 83 9 87 10 121 24 16 6 36 9 43 7 8 -3 12 -2 9 3 -7 11 22 23
36 14 7 -3 8 -1 4 5 -6 11 0 14 20 11 4 0 10 3 13 8 14 21 72 54 82 47 7 -4 9
-3 6 3 -4 6 11 26 33 46 22 19 40 40 40 46 0 6 4 11 9 11 5 0 13 9 16 20 4 11
11 17 17 14 7 -4 8 -2 4 4 -4 6 1 26 11 44 9 18 16 36 15 41 -1 4 2 7 6 7 4 0
8 8 9 18 1 9 4 42 8 72 16 139 8 205 -36 297 -11 23 -22 54 -25 69 -9 48 -56
132 -99 177 -77 81 -172 133 -293 162 -72 17 -235 17 -306 -1z"/>
</g>
</svg>
